<?xml version="1.0" standalone="no"?>
<!DOCTYPE svg PUBLIC "-//W3C//DTD SVG 20010904//EN"
 "http://www.w3.org/TR/2001/REC-SVG-20010904/DTD/svg10.dtd">
<svg version="1.0" xmlns="http://www.w3.org/2000/svg"
 width="523.000000pt" height="523.000000pt" viewBox="0 0 523.000000 523.000000"
 preserveAspectRatio="xMidYMid meet">
<metadata>
Created by potrace 1.14, written by Peter Selinger 2001-2017
</metadata>
<g transform="translate(0.000000,523.000000) scale(0.100000,-0.100000)"
fill="#000000" stroke="none">
<path d="M2457 5224 c-1 -1 -42 -4 -92 -8 -445 -31 -905 -197 -1280 -463 -33
-23 -64 -46 -70 -50 -224 -180 -327 -285 -503 -508 -56 -72 -149 -220 -215
-346 -270 -508 -356 -1113 -241 -1687 55 -272 177 -594 299 -792 141 -227 237
-351 393 -508 34 -35 59 -68 56 -74 -4 -7 -2 -8 4 -4 6 4 25 -6 41 -21 16 -15
49 -44 73 -63 23 -19 54 -46 68 -60 14 -13 27 -24 30 -25 3 0 4 -4 2 -8 -1 -5
2 -5 8 -2 6 4 19 -1 28 -12 9 -10 31 -26 47 -35 17 -10 29 -21 28 -26 -1 -4 8
-9 20 -9 12 -1 26 -8 32 -15 5 -7 31 -24 57 -38 26 -13 44 -28 41 -34 -3 -5
-1 -6 5 -2 12 7 56 -17 47 -25 -2 -3 6 -6 18 -6 12 -1 26 -8 32 -16 5 -8 16
-12 23 -10 6 3 12 0 12 -6 0 -6 9 -11 20 -11 11 0 20 -4 20 -10 0 -5 3 -9 8
-8 4 1 18 -3 32 -9 14 -6 33 -14 43 -17 10 -3 16 -10 13 -15 -3 -5 4 -7 16 -3
13 3 19 1 15 -5 -5 -7 0 -9 12 -6 11 3 28 -4 40 -16 12 -12 21 -16 21 -11 0 7
8 6 23 -2 12 -6 31 -13 42 -15 10 -2 22 -7 25 -11 3 -4 19 -9 35 -10 17 -2 35
-10 41 -18 9 -11 13 -12 16 -3 3 8 9 7 20 -5 20 -19 32 -21 22 -3 -4 6 2 3 14
-7 12 -11 25 -16 29 -13 3 4 0 7 -7 7 -7 0 -11 3 -8 6 11 10 49 -16 43 -29 -4
-7 0 -4 8 5 8 10 17 15 21 11 3 -4 17 -8 29 -10 12 -2 29 -6 37 -10 8 -3 23
-5 34 -4 10 2 16 -1 13 -6 -3 -5 8 -8 26 -5 25 3 29 1 17 -7 -8 -6 -10 -11 -4
-11 5 0 15 5 22 12 9 9 12 9 12 0 0 -7 10 -10 22 -8 13 1 28 -4 35 -13 11 -15
12 -15 18 1 4 9 13 14 21 11 8 -3 12 -8 9 -12 -2 -4 2 -8 10 -8 8 0 12 4 9 9
-3 4 2 8 11 8 11 0 15 -5 12 -15 -4 -8 -1 -17 5 -21 6 -4 8 -3 5 3 -4 6 0 16
7 22 9 8 16 8 20 2 4 -5 18 -8 32 -5 14 3 33 -1 42 -8 11 -9 14 -9 9 -1 -9 15
29 9 49 -8 12 -10 13 -8 7 7 -6 16 -5 17 9 6 13 -10 17 -10 21 0 4 8 6 7 6 -4
1 -10 5 -18 11 -18 5 0 7 6 4 14 -4 10 2 12 23 8 15 -2 34 -9 41 -15 9 -7 11
-6 7 4 -4 11 11 14 80 15 47 0 85 -4 85 -9 0 -4 -4 -6 -9 -2 -5 3 -12 1 -15
-4 -4 -5 1 -8 11 -7 9 2 19 9 22 17 7 16 31 24 31 10 0 -5 7 -12 16 -15 13 -5
14 -3 6 7 -8 10 -5 13 13 15 15 1 23 -3 21 -11 -1 -6 -1 -8 2 -4 2 4 10 3 16
-2 9 -8 13 -7 13 4 0 8 -4 12 -9 9 -4 -3 -8 0 -8 5 0 14 6 14 32 0 11 -6 18
-7 14 -1 -3 5 7 12 22 15 15 3 30 0 34 -6 6 -9 8 -9 8 0 0 6 12 14 28 17 63
14 83 16 78 8 -3 -5 11 -1 32 9 21 11 51 20 67 21 17 1 35 6 42 11 7 5 17 6
23 2 5 -3 10 -2 10 2 0 15 83 33 98 21 10 -8 11 -7 5 8 -6 17 -5 17 10 5 15
-12 17 -12 11 4 -5 13 -4 16 5 11 6 -4 17 -4 24 2 7 5 31 16 54 25 38 15 44
15 58 1 8 -8 15 -11 15 -5 0 5 -5 13 -11 17 -8 4 -7 9 2 15 19 12 32 11 24 -1
-3 -5 -1 -10 4 -10 6 0 11 6 11 13 0 18 94 62 111 52 8 -6 10 -4 4 5 -6 10 -4
12 8 7 11 -4 17 -1 17 7 0 9 8 12 23 9 18 -4 19 -3 7 6 -14 10 -7 16 13 12 5
-1 27 13 49 31 37 29 43 31 72 20 27 -10 29 -10 13 2 -17 13 -13 18 53 61 42
27 83 47 101 47 18 1 25 4 18 9 -7 4 -19 5 -28 2 -12 -3 -12 -2 1 7 13 8 24 8
40 -1 21 -11 22 -11 8 5 -13 16 -12 20 5 32 11 8 30 24 43 34 24 22 42 26 42
9 0 -5 -5 -7 -12 -3 -7 5 -8 3 -3 -6 6 -10 11 -10 20 3 7 9 16 13 20 9 5 -4 5
-1 1 6 -4 7 -12 10 -17 7 -5 -4 -9 -2 -9 4 0 13 15 22 24 14 11 -11 36 -12 36
-1 0 6 -7 8 -15 4 -9 -3 -15 0 -15 10 0 8 4 13 9 10 5 -3 11 1 14 9 4 8 24 27
46 43 22 16 37 33 33 38 -4 5 1 2 11 -6 16 -12 18 -12 15 1 -3 16 34 69 50 69
6 0 13 -6 16 -12 3 -7 3 -2 0 11 -5 17 -3 21 7 16 8 -6 11 -4 7 7 -9 23 29 43
50 26 11 -8 10 -5 -3 11 -19 23 -19 24 -1 18 14 -6 17 -3 12 8 -3 9 1 18 9 21
8 4 15 13 15 21 0 12 3 13 14 4 12 -10 13 -8 9 9 -4 16 -2 19 11 14 12 -5 15
-2 10 10 -3 9 -1 16 6 16 6 0 8 5 4 11 -4 7 2 6 17 -2 22 -11 23 -11 11 4 -11
13 -10 21 9 46 20 28 37 36 62 32 4 0 7 4 7 10 0 6 -9 8 -22 3 -21 -6 -21 -5
-9 10 8 9 21 14 29 11 12 -4 13 -3 2 10 -10 12 -9 16 4 21 9 3 13 10 10 15 -3
5 2 12 10 15 9 3 14 10 11 14 -3 4 2 11 11 14 9 3 12 11 8 18 -5 7 -2 9 8 5
12 -4 14 -1 11 14 -4 15 0 19 18 20 17 1 19 3 6 6 -9 2 -15 9 -11 14 3 5 10 7
15 4 5 -3 6 0 3 8 -8 21 14 31 34 16 12 -10 11 -7 -3 10 -11 14 -14 21 -6 16
9 -5 12 -3 9 6 -3 8 3 31 14 52 14 28 24 37 35 33 13 -5 14 -4 4 8 -16 19 -4
39 16 31 12 -4 13 -2 5 7 -7 9 -6 20 3 38 8 14 14 33 15 42 0 9 5 20 11 24 8
4 9 0 4 -15 -3 -11 -2 -21 2 -21 5 0 10 21 10 46 1 26 6 50 11 53 5 3 13 21
17 39 4 18 13 36 21 39 8 3 12 9 9 14 -7 11 5 60 14 55 4 -3 8 11 8 31 1 20 7
39 13 43 7 4 10 12 6 18 -4 6 3 20 16 31 12 12 18 24 15 28 -4 3 -7 1 -7 -5 0
-7 -5 -12 -10 -12 -7 0 -7 6 -1 18 5 9 14 43 21 74 8 37 17 55 24 51 6 -4 4 2
-4 12 -14 17 -13 18 3 12 10 -4 16 -3 12 2 -3 5 -2 11 2 14 5 2 2 2 -6 0 -10
-3 -12 4 -7 29 10 45 13 65 22 123 3 28 8 57 9 65 1 8 6 13 11 10 5 -3 8 -9 6
-13 -1 -5 2 -6 8 -2 8 5 8 11 -1 21 -6 7 -15 11 -20 8 -5 -3 -9 0 -9 5 0 6 5
11 11 11 8 0 7 6 -2 17 -8 9 -9 14 -3 10 7 -4 10 10 8 45 -1 28 2 63 6 79 6
19 4 29 -3 33 -9 3 -8 5 1 5 15 1 16 31 0 31 -6 0 -3 6 8 14 18 14 18 15 1 21
-17 7 -17 8 0 21 12 10 13 12 3 9 -13 -4 -15 9 -14 86 0 49 -4 93 -8 96 -5 2
-4 11 3 19 9 11 8 14 -2 14 -11 0 -11 2 1 10 12 7 12 10 1 10 -9 0 -12 11 -9
39 2 23 -1 37 -6 34 -5 -4 -7 3 -4 15 4 12 2 25 -3 28 -5 3 -9 20 -8 37 1 18
-3 44 -9 58 -7 17 -7 31 -1 38 5 6 6 8 2 5 -4 -3 -15 26 -24 63 -11 48 -13 70
-5 75 7 5 4 8 -8 8 -14 0 -17 6 -14 25 3 13 1 22 -3 19 -6 -3 -19 37 -24 76 0
3 -4 11 -9 19 -7 10 -5 12 5 7 8 -4 6 -1 -4 7 -11 9 -15 21 -10 32 4 13 3 16
-5 11 -12 -7 -15 4 -15 46 0 9 -5 16 -11 15 -6 -1 -11 10 -11 25 1 14 -4 24
-9 21 -5 -4 -7 1 -3 11 4 9 3 14 -2 11 -5 -3 -12 5 -16 17 -9 33 -28 72 -40
80 -6 5 -5 8 3 8 7 0 4 8 -9 21 -11 11 -18 27 -15 35 3 9 1 12 -4 9 -6 -3 -10
1 -10 9 0 9 -5 16 -11 16 -5 0 -8 4 -5 9 3 4 -5 22 -18 39 -12 17 -31 50 -41
72 -10 22 -22 40 -27 40 -4 0 -8 5 -8 10 0 6 -14 29 -30 53 -17 23 -38 53 -48
66 -29 42 -85 116 -117 155 -43 55 -242 254 -298 301 -27 22 -54 45 -60 50
-203 175 -554 362 -852 454 -120 37 -297 77 -380 87 -33 3 -62 8 -65 9 -16 10
-413 27 -423 19z"/>
<path d="M5130 2511 c0 -11 4 -22 9 -25 4 -3 6 6 3 19 -5 30 -12 33 -12 6z"/>
<path d="M5110 2249 c0 -5 5 -7 10 -4 6 3 10 8 10 11 0 2 -4 4 -10 4 -5 0 -10
-5 -10 -11z"/>
<path d="M5070 2071 c0 -6 4 -13 10 -16 6 -3 7 1 4 9 -7 18 -14 21 -14 7z"/>
<path d="M5070 1990 c0 -5 5 -10 11 -10 5 0 7 5 4 10 -3 6 -8 10 -11 10 -2 0
-4 -4 -4 -10z"/>
<path d="M5036 1951 c-3 -5 2 -15 12 -22 15 -12 16 -12 5 2 -7 9 -10 19 -6 22
3 4 4 7 0 7 -3 0 -8 -4 -11 -9z"/>
<path d="M5028 1903 c6 -2 9 -10 6 -15 -4 -7 -2 -8 5 -4 13 9 5 26 -12 25 -9
0 -8 -2 1 -6z"/>
<path d="M4991 1754 c0 -11 3 -14 6 -6 3 7 2 16 -1 19 -3 4 -6 -2 -5 -13z"/>
<path d="M4950 1690 c-9 -6 -10 -10 -3 -10 6 0 15 5 18 10 8 12 4 12 -15 0z"/>
<path d="M4867 1509 c7 -7 15 -10 18 -7 3 3 -2 9 -12 12 -14 6 -15 5 -6 -5z"/>
<path d="M4836 1465 c-3 -8 0 -17 6 -21 6 -4 8 -3 4 4 -3 5 -1 12 6 14 8 3 9
6 1 11 -6 4 -13 0 -17 -8z"/>
<path d="M4720 1229 c0 -5 5 -7 10 -4 6 3 10 8 10 11 0 2 -4 4 -10 4 -5 0 -10
-5 -10 -11z"/>
<path d="M4686 1201 c-17 -6 -17 -8 -4 -14 10 -3 19 0 22 9 3 8 4 14 3 13 -1
0 -11 -4 -21 -8z"/>
<path d="M4620 1108 c-10 -21 -10 -21 3 -6 8 10 18 14 22 10 5 -4 5 -1 1 6
-10 17 -14 15 -26 -10z"/>
<path d="M4590 1087 c0 -2 6 -10 14 -16 11 -9 16 -9 22 1 4 7 4 10 -1 6 -4 -4
-14 -3 -22 3 -7 6 -13 9 -13 6z"/>
<path d="M4510 970 c-13 -8 -12 -10 3 -10 9 0 17 5 17 10 0 12 -1 12 -20 0z"/>
<path d="M4444 909 c-3 -6 -1 -16 5 -22 9 -9 10 -7 5 7 -6 15 -4 17 6 11 9 -5
11 -4 6 3 -9 15 -13 15 -22 1z"/>
<path d="M4385 849 c-4 -6 -5 -12 -2 -15 2 -3 7 2 10 11 7 17 1 20 -8 4z"/>
<path d="M4330 769 c0 -5 5 -7 10 -4 6 3 10 8 10 11 0 2 -4 4 -10 4 -5 0 -10
-5 -10 -11z"/>
<path d="M4282 753 c-7 -2 -17 -14 -23 -26 -9 -21 -9 -21 5 -3 8 10 20 15 27
10 7 -4 10 -3 5 4 -3 5 0 13 6 15 7 3 9 5 3 5 -5 0 -16 -2 -23 -5z"/>
<path d="M4135 630 c-3 -5 -1 -10 4 -10 6 0 11 5 11 10 0 6 -2 10 -4 10 -3 0
-8 -4 -11 -10z"/>
<path d="M4121 594 c0 -11 3 -14 6 -6 3 7 2 16 -1 19 -3 4 -6 -2 -5 -13z"/>
<path d="M4028 543 c7 -3 16 -2 19 1 4 3 -2 6 -13 5 -11 0 -14 -3 -6 -6z"/>
<path d="M4011 514 c0 -11 3 -14 6 -6 3 7 2 16 -1 19 -3 4 -6 -2 -5 -13z"/>
<path d="M3940 485 c-7 -8 -17 -12 -24 -8 -6 3 -7 2 -3 -2 12 -14 37 -15 34
-2 -1 7 4 11 11 10 6 -2 12 2 12 7 0 15 -16 12 -30 -5z"/>
<path d="M3855 440 c3 -5 8 -10 11 -10 2 0 4 5 4 10 0 6 -5 10 -11 10 -5 0 -7
-4 -4 -10z"/>
<path d="M3876 423 c-6 -14 -5 -15 5 -6 7 7 10 15 7 18 -3 3 -9 -2 -12 -12z"/>
<path d="M3825 419 c-4 -6 -4 -13 -1 -16 3 -4 6 -1 6 6 0 7 5 9 10 6 6 -3 10
-1 10 4 0 14 -17 14 -25 0z"/>
<path d="M3800 401 c0 -6 4 -13 10 -16 6 -3 7 1 4 9 -7 18 -14 21 -14 7z"/>
<path d="M3690 329 c0 -5 5 -7 10 -4 6 3 10 8 10 11 0 2 -4 4 -10 4 -5 0 -10
-5 -10 -11z"/>
<path d="M3436 233 c-6 -14 -5 -15 5 -6 7 7 10 15 7 18 -3 3 -9 -2 -12 -12z"/>
<path d="M3290 192 c0 -4 11 -8 25 -8 28 0 24 8 -5 13 -11 2 -20 -1 -20 -5z"/>
<path d="M3250 169 c0 -5 5 -7 10 -4 6 3 10 8 10 11 0 2 -4 4 -10 4 -5 0 -10
-5 -10 -11z"/>
<path d="M3166 161 c-19 -7 -19 -8 0 -13 13 -3 21 0 21 8 0 8 -1 14 -1 13 -1
0 -10 -4 -20 -8z"/>
<path d="M1995 150 c-3 -5 -1 -10 4 -10 6 0 11 5 11 10 0 6 -2 10 -4 10 -3 0
-8 -4 -11 -10z"/>
<path d="M3076 137 c3 -10 9 -15 12 -12 3 3 0 11 -7 18 -10 9 -11 8 -5 -6z"/>
<path d="M3020 130 c-9 -6 -10 -10 -3 -10 6 0 15 5 18 10 8 12 4 12 -15 0z"/>
<path d="M3050 130 c0 -5 5 -10 11 -10 5 0 7 5 4 10 -3 6 -8 10 -11 10 -2 0
-4 -4 -4 -10z"/>
<path d="M2636 92 c-3 -5 1 -9 9 -9 8 0 12 4 9 9 -3 4 -7 8 -9 8 -2 0 -6 -4
-9 -8z"/>
<path d="M2696 77 c3 -10 9 -15 12 -12 3 3 0 11 -7 18 -10 9 -11 8 -5 -6z"/>
</g>
</svg>
